<svg width="30" height="30" viewBox="0 0 30 30" fill="none" xmlns="http://www.w3.org/2000/svg">
<g clip-path="url(#clip0_318:4171)">
<path d="M12.0652 22.8H22.2283V30H12.0652V22.8Z" fill="#FB923C"/>
<path d="M17.9348 7.20001L7.77171 7.20001L7.77171 1.05556e-05L17.9348 1.14441e-05L17.9348 7.20001Z" fill="#FB923C"/>
<path d="M22.2283 0L22.2283 30L30 22.8L30 0L22.2283 0Z" fill="#292524"/>
<path d="M7.77173 30L7.77173 -1.90735e-06L-8.97402e-06 7.2L-1.4782e-05 30L7.77173 30Z" fill="#292524"/>
<path d="M21.0326 22.8H22.2282V30L21.0326 22.8Z" fill="#292524" fill-opacity="0.15"/>
<path d="M8.96741 7.20001L7.77176 7.20001L7.77176 1.13396e-05L8.96741 7.20001Z" fill="#292524" fill-opacity="0.15"/>
</g>
<defs>
<clipPath id="clip0_318:4171">
<rect width="30" height="30" fill="white"/>
</clipPath>
</defs>
</svg>
